<mxfile host="Electron" modified="2023-09-17T15:25:55.980Z" agent="Mozilla/5.0 (Macintosh; Intel Mac OS X 10_15_7) AppleWebKit/537.36 (KHTML, like Gecko) draw.io/21.5.0 Chrome/112.0.5615.204 Electron/24.5.1 Safari/537.36" etag="0RM5dfAkgI7tXKJ0-Ra3" version="21.5.0" type="device">
  <diagram name="Page-1" id="fdolWcRZI4liJrtIMirs">
    <mxGraphModel dx="2074" dy="794" grid="0" gridSize="10" guides="1" tooltips="1" connect="1" arrows="1" fold="1" page="0" pageScale="1" pageWidth="827" pageHeight="1169" math="0" shadow="0">
      <root>
        <mxCell id="0" />
        <mxCell id="1" parent="0" />
        <mxCell id="1CGNLANKShd2C8gF9nvR-2" value="CRM &amp;amp; Transaction Database" style="sketch=0;points=[[0,0,0],[0.25,0,0],[0.5,0,0],[0.75,0,0],[1,0,0],[0,1,0],[0.25,1,0],[0.5,1,0],[0.75,1,0],[1,1,0],[0,0.25,0],[0,0.5,0],[0,0.75,0],[1,0.25,0],[1,0.5,0],[1,0.75,0]];outlineConnect=0;fontColor=#232F3E;gradientColor=#4D72F3;gradientDirection=north;fillColor=#3334B9;strokeColor=#ffffff;dashed=0;verticalLabelPosition=bottom;verticalAlign=top;align=center;html=1;fontSize=12;fontStyle=0;aspect=fixed;shape=mxgraph.aws4.resourceIcon;resIcon=mxgraph.aws4.database;" vertex="1" parent="1">
          <mxGeometry x="60" y="90" width="78" height="78" as="geometry" />
        </mxCell>
        <mxCell id="1CGNLANKShd2C8gF9nvR-8" value="AWS Cloud" style="points=[[0,0],[0.25,0],[0.5,0],[0.75,0],[1,0],[1,0.25],[1,0.5],[1,0.75],[1,1],[0.75,1],[0.5,1],[0.25,1],[0,1],[0,0.75],[0,0.5],[0,0.25]];outlineConnect=0;gradientColor=none;html=1;whiteSpace=wrap;fontSize=12;fontStyle=0;container=1;pointerEvents=0;collapsible=0;recursiveResize=0;shape=mxgraph.aws4.group;grIcon=mxgraph.aws4.group_aws_cloud_alt;strokeColor=#232F3E;fillColor=none;verticalAlign=top;align=left;spacingLeft=30;fontColor=#232F3E;dashed=0;" vertex="1" parent="1">
          <mxGeometry x="204" y="34" width="566" height="666" as="geometry" />
        </mxCell>
        <mxCell id="1CGNLANKShd2C8gF9nvR-41" value="" style="rounded=0;whiteSpace=wrap;html=1;fillColor=none;dashed=1;" vertex="1" parent="1CGNLANKShd2C8gF9nvR-8">
          <mxGeometry x="7" y="409" width="549" height="230" as="geometry" />
        </mxCell>
        <mxCell id="1CGNLANKShd2C8gF9nvR-10" value="" style="rounded=0;whiteSpace=wrap;html=1;fillColor=none;dashed=1;" vertex="1" parent="1CGNLANKShd2C8gF9nvR-8">
          <mxGeometry x="15" y="46" width="475" height="154" as="geometry" />
        </mxCell>
        <mxCell id="1CGNLANKShd2C8gF9nvR-3" value="S3 landing zone" style="sketch=0;points=[[0,0,0],[0.25,0,0],[0.5,0,0],[0.75,0,0],[1,0,0],[0,1,0],[0.25,1,0],[0.5,1,0],[0.75,1,0],[1,1,0],[0,0.25,0],[0,0.5,0],[0,0.75,0],[1,0.25,0],[1,0.5,0],[1,0.75,0]];outlineConnect=0;fontColor=#232F3E;gradientColor=#60A337;gradientDirection=north;fillColor=#277116;strokeColor=#ffffff;dashed=0;verticalLabelPosition=bottom;verticalAlign=top;align=center;html=1;fontSize=12;fontStyle=0;aspect=fixed;shape=mxgraph.aws4.resourceIcon;resIcon=mxgraph.aws4.s3;" vertex="1" parent="1CGNLANKShd2C8gF9nvR-8">
          <mxGeometry x="36" y="57" width="78" height="78" as="geometry" />
        </mxCell>
        <mxCell id="1CGNLANKShd2C8gF9nvR-6" value="Glue&lt;br&gt;Data processing pipeline" style="outlineConnect=0;dashed=0;verticalLabelPosition=bottom;verticalAlign=top;align=center;html=1;shape=mxgraph.aws3.glue;fillColor=#F58534;gradientColor=none;" vertex="1" parent="1CGNLANKShd2C8gF9nvR-8">
          <mxGeometry x="190.75" y="57" width="82.5" height="99" as="geometry" />
        </mxCell>
        <mxCell id="1CGNLANKShd2C8gF9nvR-4" value="Redshift&lt;br&gt;Data Warehouse" style="outlineConnect=0;dashed=0;verticalLabelPosition=bottom;verticalAlign=top;align=center;html=1;shape=mxgraph.aws3.redshift;fillColor=#2E73B8;gradientColor=none;" vertex="1" parent="1CGNLANKShd2C8gF9nvR-8">
          <mxGeometry x="376" y="69" width="67.5" height="75" as="geometry" />
        </mxCell>
        <mxCell id="1CGNLANKShd2C8gF9nvR-7" value="SageMaker&lt;br&gt;Train Model" style="sketch=0;points=[[0,0,0],[0.25,0,0],[0.5,0,0],[0.75,0,0],[1,0,0],[0,1,0],[0.25,1,0],[0.5,1,0],[0.75,1,0],[1,1,0],[0,0.25,0],[0,0.5,0],[0,0.75,0],[1,0.25,0],[1,0.5,0],[1,0.75,0]];outlineConnect=0;fontColor=#232F3E;gradientColor=#4AB29A;gradientDirection=north;fillColor=#116D5B;strokeColor=#ffffff;dashed=0;verticalLabelPosition=bottom;verticalAlign=top;align=center;html=1;fontSize=12;fontStyle=0;aspect=fixed;shape=mxgraph.aws4.resourceIcon;resIcon=mxgraph.aws4.sagemaker;" vertex="1" parent="1CGNLANKShd2C8gF9nvR-8">
          <mxGeometry x="376" y="274" width="78" height="78" as="geometry" />
        </mxCell>
        <mxCell id="1CGNLANKShd2C8gF9nvR-5" value="Trained model&lt;br&gt;Pre Scored customer data&lt;br&gt;according to internal data" style="sketch=0;outlineConnect=0;fontColor=#232F3E;gradientColor=none;fillColor=#067F68;strokeColor=none;dashed=0;verticalLabelPosition=bottom;verticalAlign=top;align=center;html=1;fontSize=12;fontStyle=0;aspect=fixed;pointerEvents=1;shape=mxgraph.aws4.sagemaker_model;" vertex="1" parent="1CGNLANKShd2C8gF9nvR-8">
          <mxGeometry x="213.5" y="268" width="78" height="78" as="geometry" />
        </mxCell>
        <mxCell id="1CGNLANKShd2C8gF9nvR-11" value="AWS Fargate&lt;br&gt;customer onboarding &lt;br&gt;Apps" style="sketch=0;points=[[0,0,0],[0.25,0,0],[0.5,0,0],[0.75,0,0],[1,0,0],[0,1,0],[0.25,1,0],[0.5,1,0],[0.75,1,0],[1,1,0],[0,0.25,0],[0,0.5,0],[0,0.75,0],[1,0.25,0],[1,0.5,0],[1,0.75,0]];outlineConnect=0;fontColor=#232F3E;gradientColor=#F78E04;gradientDirection=north;fillColor=#D05C17;strokeColor=#ffffff;dashed=0;verticalLabelPosition=bottom;verticalAlign=top;align=center;html=1;fontSize=12;fontStyle=0;aspect=fixed;shape=mxgraph.aws4.resourceIcon;resIcon=mxgraph.aws4.fargate;" vertex="1" parent="1CGNLANKShd2C8gF9nvR-8">
          <mxGeometry x="36" y="459" width="78" height="78" as="geometry" />
        </mxCell>
        <mxCell id="1CGNLANKShd2C8gF9nvR-14" value="&lt;br&gt;Combine Pre-score &amp;amp; &lt;br&gt;CB data for final &lt;br&gt;decision" style="strokeWidth=2;html=1;shape=mxgraph.flowchart.decision;whiteSpace=wrap;" vertex="1" parent="1CGNLANKShd2C8gF9nvR-8">
          <mxGeometry x="206" y="430" width="138" height="140" as="geometry" />
        </mxCell>
        <mxCell id="1CGNLANKShd2C8gF9nvR-16" value="" style="edgeStyle=orthogonalEdgeStyle;html=1;endArrow=block;elbow=vertical;startArrow=none;endFill=1;strokeColor=#545B64;rounded=0;exitX=1;exitY=0.5;exitDx=0;exitDy=0;exitPerimeter=0;entryX=0;entryY=0.5;entryDx=0;entryDy=0;entryPerimeter=0;" edge="1" parent="1CGNLANKShd2C8gF9nvR-8" source="1CGNLANKShd2C8gF9nvR-3" target="1CGNLANKShd2C8gF9nvR-6">
          <mxGeometry width="100" relative="1" as="geometry">
            <mxPoint x="93.25" y="226" as="sourcePoint" />
            <mxPoint x="195.25" y="226" as="targetPoint" />
            <Array as="points">
              <mxPoint x="114" y="107" />
            </Array>
          </mxGeometry>
        </mxCell>
        <mxCell id="1CGNLANKShd2C8gF9nvR-17" value="" style="edgeStyle=orthogonalEdgeStyle;html=1;endArrow=block;elbow=vertical;startArrow=none;endFill=1;strokeColor=#545B64;rounded=0;" edge="1" parent="1CGNLANKShd2C8gF9nvR-8" source="1CGNLANKShd2C8gF9nvR-6" target="1CGNLANKShd2C8gF9nvR-4">
          <mxGeometry width="100" relative="1" as="geometry">
            <mxPoint x="286" y="95.75" as="sourcePoint" />
            <mxPoint x="363" y="95.75" as="targetPoint" />
            <Array as="points" />
          </mxGeometry>
        </mxCell>
        <mxCell id="1CGNLANKShd2C8gF9nvR-19" value="ETL" style="text;html=1;strokeColor=none;fillColor=none;align=center;verticalAlign=middle;whiteSpace=wrap;rounded=0;fontStyle=1" vertex="1" parent="1CGNLANKShd2C8gF9nvR-8">
          <mxGeometry x="443.5" y="41" width="60" height="30" as="geometry" />
        </mxCell>
        <mxCell id="1CGNLANKShd2C8gF9nvR-20" value="" style="edgeStyle=orthogonalEdgeStyle;html=1;endArrow=block;elbow=vertical;startArrow=none;endFill=1;strokeColor=#545B64;rounded=0;" edge="1" parent="1CGNLANKShd2C8gF9nvR-8" source="1CGNLANKShd2C8gF9nvR-4" target="1CGNLANKShd2C8gF9nvR-7">
          <mxGeometry width="100" relative="1" as="geometry">
            <mxPoint x="340.5" y="246" as="sourcePoint" />
            <mxPoint x="443.5" y="246" as="targetPoint" />
            <Array as="points">
              <mxPoint x="410" y="246" />
              <mxPoint x="410" y="246" />
            </Array>
          </mxGeometry>
        </mxCell>
        <mxCell id="1CGNLANKShd2C8gF9nvR-21" value="" style="edgeStyle=orthogonalEdgeStyle;html=1;endArrow=block;elbow=vertical;startArrow=none;endFill=1;strokeColor=#545B64;rounded=0;exitX=0;exitY=0.5;exitDx=0;exitDy=0;exitPerimeter=0;" edge="1" parent="1CGNLANKShd2C8gF9nvR-8" source="1CGNLANKShd2C8gF9nvR-7" target="1CGNLANKShd2C8gF9nvR-5">
          <mxGeometry width="100" relative="1" as="geometry">
            <mxPoint x="296" y="246" as="sourcePoint" />
            <mxPoint x="399" y="246" as="targetPoint" />
            <Array as="points">
              <mxPoint x="326" y="313" />
              <mxPoint x="326" y="313" />
            </Array>
          </mxGeometry>
        </mxCell>
        <mxCell id="1CGNLANKShd2C8gF9nvR-27" value="" style="edgeStyle=orthogonalEdgeStyle;html=1;endArrow=block;elbow=vertical;startArrow=none;endFill=1;strokeColor=#545B64;rounded=0;entryX=0;entryY=0.5;entryDx=0;entryDy=0;entryPerimeter=0;" edge="1" parent="1CGNLANKShd2C8gF9nvR-8" source="1CGNLANKShd2C8gF9nvR-11" target="1CGNLANKShd2C8gF9nvR-14">
          <mxGeometry width="100" relative="1" as="geometry">
            <mxPoint x="160" y="426" as="sourcePoint" />
            <mxPoint x="260" y="426" as="targetPoint" />
            <Array as="points" />
          </mxGeometry>
        </mxCell>
        <mxCell id="1CGNLANKShd2C8gF9nvR-32" value="Initiate &lt;br&gt;decision" style="edgeLabel;html=1;align=center;verticalAlign=middle;resizable=0;points=[];" vertex="1" connectable="0" parent="1CGNLANKShd2C8gF9nvR-27">
          <mxGeometry x="-0.2353" y="-1" relative="1" as="geometry">
            <mxPoint y="-1" as="offset" />
          </mxGeometry>
        </mxCell>
        <mxCell id="1CGNLANKShd2C8gF9nvR-33" value="" style="edgeStyle=orthogonalEdgeStyle;html=1;endArrow=block;elbow=vertical;startArrow=none;endFill=1;strokeColor=#545B64;rounded=0;entryX=0.5;entryY=0;entryDx=0;entryDy=0;entryPerimeter=0;" edge="1" parent="1CGNLANKShd2C8gF9nvR-8" source="1CGNLANKShd2C8gF9nvR-5" target="1CGNLANKShd2C8gF9nvR-14">
          <mxGeometry width="100" relative="1" as="geometry">
            <mxPoint x="46" y="376" as="sourcePoint" />
            <mxPoint x="146" y="376" as="targetPoint" />
            <Array as="points">
              <mxPoint x="106" y="307" />
              <mxPoint x="106" y="416" />
              <mxPoint x="275" y="416" />
            </Array>
          </mxGeometry>
        </mxCell>
        <mxCell id="1CGNLANKShd2C8gF9nvR-34" value="Pre-scored Decision" style="edgeLabel;html=1;align=center;verticalAlign=middle;resizable=0;points=[];" vertex="1" connectable="0" parent="1CGNLANKShd2C8gF9nvR-33">
          <mxGeometry x="-0.096" y="1" relative="1" as="geometry">
            <mxPoint as="offset" />
          </mxGeometry>
        </mxCell>
        <mxCell id="1CGNLANKShd2C8gF9nvR-42" value="" style="edgeStyle=orthogonalEdgeStyle;html=1;endArrow=block;elbow=vertical;startArrow=none;endFill=1;strokeColor=#545B64;rounded=0;exitX=0;exitY=0.75;exitDx=0;exitDy=0;exitPerimeter=0;" edge="1" parent="1CGNLANKShd2C8gF9nvR-8" source="1CGNLANKShd2C8gF9nvR-11" target="1CGNLANKShd2C8gF9nvR-41">
          <mxGeometry width="100" relative="1" as="geometry">
            <mxPoint x="36" y="518" as="sourcePoint" />
            <mxPoint x="642" y="511" as="targetPoint" />
            <Array as="points">
              <mxPoint x="16" y="510" />
            </Array>
          </mxGeometry>
        </mxCell>
        <mxCell id="1CGNLANKShd2C8gF9nvR-44" value="Loan Application" style="text;html=1;strokeColor=none;fillColor=none;align=center;verticalAlign=middle;whiteSpace=wrap;rounded=0;fontStyle=1" vertex="1" parent="1CGNLANKShd2C8gF9nvR-8">
          <mxGeometry x="452" y="407" width="104" height="30" as="geometry" />
        </mxCell>
        <mxCell id="1CGNLANKShd2C8gF9nvR-46" value="1" style="ellipse;whiteSpace=wrap;html=1;" vertex="1" parent="1CGNLANKShd2C8gF9nvR-8">
          <mxGeometry x="52" y="601" width="23" height="20" as="geometry" />
        </mxCell>
        <mxCell id="1CGNLANKShd2C8gF9nvR-47" value="2" style="ellipse;whiteSpace=wrap;html=1;" vertex="1" parent="1CGNLANKShd2C8gF9nvR-8">
          <mxGeometry x="175" y="475" width="23" height="20" as="geometry" />
        </mxCell>
        <mxCell id="1CGNLANKShd2C8gF9nvR-48" value="3" style="ellipse;whiteSpace=wrap;html=1;" vertex="1" parent="1CGNLANKShd2C8gF9nvR-8">
          <mxGeometry x="342" y="470" width="23" height="20" as="geometry" />
        </mxCell>
        <mxCell id="1CGNLANKShd2C8gF9nvR-49" value="4" style="ellipse;whiteSpace=wrap;html=1;" vertex="1" parent="1CGNLANKShd2C8gF9nvR-8">
          <mxGeometry x="208" y="420" width="23" height="20" as="geometry" />
        </mxCell>
        <mxCell id="1CGNLANKShd2C8gF9nvR-50" value="5" style="ellipse;whiteSpace=wrap;html=1;" vertex="1" parent="1CGNLANKShd2C8gF9nvR-8">
          <mxGeometry x="278" y="573" width="23" height="20" as="geometry" />
        </mxCell>
        <mxCell id="1CGNLANKShd2C8gF9nvR-12" value="User Interface" style="sketch=0;points=[[0,0,0],[0.25,0,0],[0.5,0,0],[0.75,0,0],[1,0,0],[0,1,0],[0.25,1,0],[0.5,1,0],[0.75,1,0],[1,1,0],[0,0.25,0],[0,0.5,0],[0,0.75,0],[1,0.25,0],[1,0.5,0],[1,0.75,0]];outlineConnect=0;fontColor=#232F3E;gradientColor=#F54749;gradientDirection=north;fillColor=#C7131F;strokeColor=#ffffff;dashed=0;verticalLabelPosition=bottom;verticalAlign=top;align=center;html=1;fontSize=12;fontStyle=0;aspect=fixed;shape=mxgraph.aws4.resourceIcon;resIcon=mxgraph.aws4.mobile;" vertex="1" parent="1">
          <mxGeometry x="60" y="480" width="78" height="78" as="geometry" />
        </mxCell>
        <mxCell id="1CGNLANKShd2C8gF9nvR-13" value="Credit Bureau" style="image;aspect=fixed;html=1;points=[];align=center;fontSize=12;image=img/lib/azure2/compute/Cloud_Services_Classic.svg;" vertex="1" parent="1">
          <mxGeometry x="810" y="493" width="72" height="52" as="geometry" />
        </mxCell>
        <mxCell id="1CGNLANKShd2C8gF9nvR-15" value="" style="edgeStyle=orthogonalEdgeStyle;html=1;endArrow=block;elbow=vertical;startArrow=none;endFill=1;strokeColor=#545B64;rounded=0;" edge="1" parent="1" source="1CGNLANKShd2C8gF9nvR-2" target="1CGNLANKShd2C8gF9nvR-3">
          <mxGeometry width="100" relative="1" as="geometry">
            <mxPoint x="120" y="128.75" as="sourcePoint" />
            <mxPoint x="190" y="180" as="targetPoint" />
            <Array as="points">
              <mxPoint x="210" y="129" />
              <mxPoint x="210" y="129" />
            </Array>
          </mxGeometry>
        </mxCell>
        <mxCell id="1CGNLANKShd2C8gF9nvR-22" value="User applying for loan/Credit Card" style="sketch=0;html=1;dashed=0;whitespace=wrap;fillColor=#2875E2;strokeColor=#ffffff;points=[[0.005,0.63,0],[0.1,0.2,0],[0.9,0.2,0],[0.5,0,0],[0.995,0.63,0],[0.72,0.99,0],[0.5,1,0],[0.28,0.99,0]];verticalLabelPosition=bottom;align=center;verticalAlign=top;shape=mxgraph.kubernetes.icon;prIcon=user" vertex="1" parent="1">
          <mxGeometry x="74" y="380" width="50" height="48" as="geometry" />
        </mxCell>
        <mxCell id="1CGNLANKShd2C8gF9nvR-25" value="" style="edgeStyle=orthogonalEdgeStyle;html=1;endArrow=block;elbow=vertical;startArrow=none;endFill=1;strokeColor=#545B64;rounded=0;exitX=0.5;exitY=1;exitDx=0;exitDy=0;exitPerimeter=0;entryX=0.5;entryY=0;entryDx=0;entryDy=0;entryPerimeter=0;" edge="1" parent="1" source="1CGNLANKShd2C8gF9nvR-22" target="1CGNLANKShd2C8gF9nvR-12">
          <mxGeometry width="100" relative="1" as="geometry">
            <mxPoint x="133" y="357" as="sourcePoint" />
            <mxPoint x="30" y="357" as="targetPoint" />
            <Array as="points" />
          </mxGeometry>
        </mxCell>
        <mxCell id="1CGNLANKShd2C8gF9nvR-26" value="" style="edgeStyle=orthogonalEdgeStyle;html=1;endArrow=block;elbow=vertical;startArrow=none;endFill=1;strokeColor=#545B64;rounded=0;exitX=1.026;exitY=0.564;exitDx=0;exitDy=0;exitPerimeter=0;" edge="1" parent="1" source="1CGNLANKShd2C8gF9nvR-12" target="1CGNLANKShd2C8gF9nvR-11">
          <mxGeometry width="100" relative="1" as="geometry">
            <mxPoint x="109" y="438" as="sourcePoint" />
            <mxPoint x="109" y="490" as="targetPoint" />
            <Array as="points">
              <mxPoint x="212" y="524" />
              <mxPoint x="212" y="524" />
            </Array>
          </mxGeometry>
        </mxCell>
        <mxCell id="1CGNLANKShd2C8gF9nvR-28" value="" style="edgeStyle=orthogonalEdgeStyle;html=1;endArrow=block;elbow=vertical;startArrow=none;endFill=1;strokeColor=#545B64;rounded=0;entryX=1;entryY=0.5;entryDx=0;entryDy=0;entryPerimeter=0;" edge="1" parent="1" source="1CGNLANKShd2C8gF9nvR-13" target="1CGNLANKShd2C8gF9nvR-14">
          <mxGeometry width="100" relative="1" as="geometry">
            <mxPoint x="328" y="534" as="sourcePoint" />
            <mxPoint x="417" y="534" as="targetPoint" />
            <Array as="points">
              <mxPoint x="690" y="534" />
              <mxPoint x="690" y="534" />
            </Array>
          </mxGeometry>
        </mxCell>
        <mxCell id="1CGNLANKShd2C8gF9nvR-31" value="Customer Credit score &amp;amp; Credit History" style="edgeLabel;html=1;align=center;verticalAlign=middle;resizable=0;points=[];" vertex="1" connectable="0" parent="1CGNLANKShd2C8gF9nvR-28">
          <mxGeometry x="0.0321" relative="1" as="geometry">
            <mxPoint x="-15" as="offset" />
          </mxGeometry>
        </mxCell>
        <mxCell id="1CGNLANKShd2C8gF9nvR-29" value="" style="edgeStyle=orthogonalEdgeStyle;html=1;endArrow=block;elbow=vertical;startArrow=none;endFill=1;strokeColor=#545B64;rounded=0;" edge="1" parent="1" source="1CGNLANKShd2C8gF9nvR-11" target="1CGNLANKShd2C8gF9nvR-13">
          <mxGeometry width="100" relative="1" as="geometry">
            <mxPoint x="325" y="660" as="sourcePoint" />
            <mxPoint x="414" y="660" as="targetPoint" />
            <Array as="points">
              <mxPoint x="282" y="650" />
              <mxPoint x="846" y="650" />
            </Array>
          </mxGeometry>
        </mxCell>
        <mxCell id="1CGNLANKShd2C8gF9nvR-45" value="Customer IC/Passport number" style="edgeLabel;html=1;align=center;verticalAlign=middle;resizable=0;points=[];" vertex="1" connectable="0" parent="1CGNLANKShd2C8gF9nvR-29">
          <mxGeometry x="0.0241" relative="1" as="geometry">
            <mxPoint as="offset" />
          </mxGeometry>
        </mxCell>
        <mxCell id="1CGNLANKShd2C8gF9nvR-35" value="" style="edgeStyle=orthogonalEdgeStyle;html=1;endArrow=block;elbow=vertical;startArrow=none;endFill=1;strokeColor=#545B64;rounded=0;entryX=1;entryY=0.75;entryDx=0;entryDy=0;entryPerimeter=0;exitX=0.5;exitY=1;exitDx=0;exitDy=0;exitPerimeter=0;" edge="1" parent="1" source="1CGNLANKShd2C8gF9nvR-14" target="1CGNLANKShd2C8gF9nvR-12">
          <mxGeometry width="100" relative="1" as="geometry">
            <mxPoint x="448" y="650" as="sourcePoint" />
            <mxPoint x="509" y="773" as="targetPoint" />
            <Array as="points">
              <mxPoint x="479" y="760" />
              <mxPoint x="170" y="760" />
              <mxPoint x="170" y="539" />
            </Array>
          </mxGeometry>
        </mxCell>
        <mxCell id="1CGNLANKShd2C8gF9nvR-36" value="Final Decision inform to the customer" style="edgeLabel;html=1;align=center;verticalAlign=middle;resizable=0;points=[];" vertex="1" connectable="0" parent="1CGNLANKShd2C8gF9nvR-35">
          <mxGeometry x="-0.096" y="1" relative="1" as="geometry">
            <mxPoint as="offset" />
          </mxGeometry>
        </mxCell>
      </root>
    </mxGraphModel>
  </diagram>
</mxfile>
